<?xml version="1.0" encoding="utf-8"?>
<!-- Generator: Adobe Illustrator 17.0.0, SVG Export Plug-In . SVG Version: 6.00 Build 0)  -->
<!DOCTYPE svg PUBLIC "-//W3C//DTD SVG 1.1//EN" "http://www.w3.org/Graphics/SVG/1.1/DTD/svg11.dtd">
<svg version="1.1" id="Layer_1" xmlns="http://www.w3.org/2000/svg" xmlns:xlink="http://www.w3.org/1999/xlink" x="0px" y="0px"
	 width="230.227px" height="28.5px" viewBox="-1.141 0 230.227 28.5" enable-background="new -1.141 0 230.227 28.5"
	 xml:space="preserve">
<g id="Shape_3">
	<g>
		<path d="M18.286,19.215c-0.415,0.397-0.855,0.743-1.321,1.037s-0.981,0.518-1.546,0.672c-0.566,0.153-1.188,0.23-1.867,0.23
			c-0.931,0-1.78-0.185-2.547-0.556s-1.428-0.876-1.98-1.516c-0.553-0.64-0.987-1.401-1.301-2.285
			c-0.315-0.883-0.471-1.823-0.471-2.822v-0.077c0-0.972,0.157-1.894,0.471-2.764c0.314-0.87,0.748-1.625,1.301-2.265
			c0.553-0.64,1.213-1.146,1.98-1.517c0.767-0.371,1.616-0.557,2.547-0.557c1.282,0,2.376,0.282,3.282,0.845
			c0.905,0.563,1.735,1.331,2.49,2.304l5.508-4.338c-0.579-0.819-1.239-1.574-1.98-2.265c-0.742-0.691-1.572-1.286-2.49-1.785
			c-0.918-0.5-1.93-0.883-3.037-1.152C16.217,0.134,14.985,0,13.627,0C11.615,0,9.76,0.358,8.063,1.075
			C6.365,1.791,4.9,2.784,3.668,4.05C2.435,5.317,1.467,6.802,0.763,8.504c-0.704,1.703-1.056,3.526-1.056,5.471v0.077
			c0,1.996,0.358,3.845,1.075,5.548c0.717,1.702,1.685,3.174,2.905,4.414c1.22,1.242,2.66,2.208,4.32,2.899s3.433,1.037,5.319,1.037
			c1.458,0,2.773-0.153,3.942-0.461c1.169-0.307,2.226-0.73,3.169-1.267c0.943-0.538,1.785-1.177,2.528-1.92
			c0.741-0.742,1.427-1.548,2.056-2.419l-5.508-3.993C19.11,18.377,18.701,18.819,18.286,19.215z M36.311,0.535
			c-3.848,0-7.772,0-11.583,0l3.38,6.142c1.966-0.005,6.738-0.035,8.203,0.001c3.848,0.038,3.66,6.719,0,6.719h-4.505l9.98,18.33
			l7.723,0.008L41.894,17.89C48.572,13.283,46.686,0.573,36.311,0.535z M61.273,0.189l-12.33,27.223h7.048l1.547-3.379h10.413
			l1.547,3.379h7.049L64.178,0.189H61.273z M59.726,18.158l2.981-7.065l3.056,7.065H59.726z M78.704,27.412h7.319v-9.598h11.61
			v-6.22h-11.61v-4.53h12.931V0.537h-20.25V27.412z M102.383,7.064h7.63v20.348h7.319V7.064h7.63V0.537h-22.579
			C102.383,0.537,102.383,7.064,102.383,7.064z M146.423,13.502c-0.856-0.639-1.893-1.182-3.113-1.63
			c-1.22-0.447-2.584-0.836-4.093-1.169c-0.905-0.204-1.654-0.402-2.245-0.594c-0.591-0.191-1.056-0.382-1.396-0.574
			c-0.339-0.192-0.578-0.402-0.716-0.633c-0.139-0.23-0.208-0.498-0.208-0.804V8.021c0-0.485,0.22-0.894,0.66-1.226
			c0.44-0.333,1.1-0.499,1.981-0.499c1.182,0,2.408,0.225,3.679,0.672c1.269,0.448,2.508,1.107,3.716,1.977l3.659-5.276
			c-1.434-1.184-3.037-2.08-4.81-2.684c-1.773-0.606-3.791-0.908-6.055-0.908c-1.584,0-3.006,0.211-4.264,0.632
			c-1.257,0.422-2.333,1.016-3.225,1.783c-0.893,0.766-1.572,1.674-2.037,2.721c-0.466,1.047-0.698,2.197-0.698,3.449v0.076
			c0,1.38,0.258,2.537,0.773,3.469c0.515,0.933,1.219,1.712,2.112,2.338s1.943,1.137,3.15,1.534c1.208,0.396,2.514,0.76,3.923,1.092
			c0.905,0.204,1.641,0.402,2.207,0.594s1.018,0.39,1.358,0.594c0.339,0.205,0.571,0.415,0.698,0.633
			c0.125,0.217,0.188,0.466,0.188,0.748v0.076c0,0.588-0.258,1.042-0.773,1.361c-0.516,0.32-1.264,0.479-2.244,0.479
			c-3.069,0-5.923-1.075-8.564-3.226l-4.075,4.964c1.635,1.494,3.515,2.614,5.64,3.362c2.125,0.746,4.369,1.12,6.734,1.12
			c1.609,0,3.068-0.198,4.376-0.594c1.308-0.396,2.426-0.971,3.358-1.725c0.93-0.754,1.653-1.667,2.169-2.74
			c0.515-1.073,0.773-2.3,0.773-3.679v-0.077c0-1.252-0.226-2.332-0.678-3.238C147.931,14.913,147.277,14.14,146.423,13.502z
			 M161.836,12.13L151.498,0.458l-0.003,10.098l10.001,10.865h0.755l5.622-5.99v11.98c2.301,0,4.603,0,6.904,0V0.458h-2.415
			L161.836,12.13z M186.61,16.815h11.799v-5.874H186.61V6.872h13.12V0.537h-20.325v26.875h20.513v-6.335H186.61V16.815z
			 M219.808,0.535v13.17L206.452,0.419H204v26.993c2.301,0,4.64,0,6.979,0V14.204l13.319,13.247h2.414V0.535
			C224.411,0.535,222.109,0.535,219.808,0.535z"/>
	</g>
</g>
</svg>
